<?xml version="1.0" encoding="utf-8"?>
<!-- Generator: Adobe Illustrator 17.1.0, SVG Export Plug-In . SVG Version: 6.00 Build 0)  -->
<svg version="1.2" baseProfile="tiny" id="Layer_1" xmlns="http://www.w3.org/2000/svg" xmlns:xlink="http://www.w3.org/1999/xlink"
	 x="0px" y="0px" viewBox="0 0 151.341 55.34" overflow="scroll" xml:space="preserve">
<g>
	<g>
		<path fill="#FFFFFF" d="M97.122,53.286c-1.656,0.51-3.385,0.772-5.105,0.943c-0.071,0.007-0.143,0.014-0.214,0.021
			c-0.119,0.011-0.238,0.015-0.357,0.02c0.616-0.986,1.431-1.943,2.225-2.845c-0.826,0.508-1.7,1.004-2.528,1.603
			c1.179-2.438,2.126-5.074,2.272-7.9c0.488-6.685-1.307-12.989-2.091-19.102c-1.275-7.965-0.371-15.856,3.006-22.218
			c0.198,0.031,0.396,0.061,0.601,0.093c0.839,0.13,1.67,0.31,2.49,0.532c3.406,0.995,6.521,2.635,9.193,4.774
			c0.404,0.332,0.799,0.674,1.18,1.03c1.926,1.798,3.566,3.909,4.844,6.218c-3.668-9.458-11.928-16.163-21.715-16.446
			c-8.527-0.247-16.178,4.44-20.79,11.755c4.104-4.387,9.761-7.394,16.138-8.204c-1.416,4.818-1.674,9.929-1.123,14.908
			c0.286,2.587,0.78,5.148,1.402,7.675c0.635,2.577,1.438,5.108,2.202,7.649c1.103,3.669,2.153,7.411,2.335,11.259
			c0.215,2.786-0.506,5.605-1.496,8.317c-0.984-1.985-2.51-3.669-4.522-4.326c1.842,1.221,2.717,3.241,3.026,5.224
			c-0.178-0.009-0.357-0.018-0.539-0.035c-1.46-0.153-2.909-0.363-4.33-0.737c-2.075-0.545-4.078-1.306-5.967-2.327
			c-0.378-0.204-0.749-0.421-1.115-0.643c3.753,2.906,8.274,4.662,13.179,4.804c6.199,0.179,11.936-2.25,16.379-6.401
			c-0.76,0.586-1.552,1.132-2.373,1.631C101.381,51.744,99.295,52.616,97.122,53.286z"/>
	</g>
	<g>
		<path fill="#FFFFFF" d="M8.18,30.247l-0.257,0.691l-0.149,0.406l-0.203,0.027c-0.163-0.298-0.284-0.406-0.542-0.515
			c-0.163-0.068-0.339-0.108-0.528-0.136C6.284,30.695,6,30.667,5.81,30.667H5.377c-0.068,0.013-0.135,0.013-0.203,0.013
			L4.93,31.913l-0.758,4.74c-0.149,0.894-0.203,1.476-0.203,2.031c0,0.203,0.013,0.298,0.041,0.528l-0.542-0.027h-1.3l-0.528,0.027
			c0.19-0.569,0.23-0.745,0.325-1.259c0.041-0.176,0.081-0.366,0.136-0.623c0.04-0.244,0.068-0.406,0.095-0.582l0.731-4.51
			c0.041-0.244,0.081-0.542,0.122-0.894c0.014-0.149,0.041-0.366,0.081-0.664c-0.677,0-0.948,0.014-1.259,0.054
			c-0.42,0.054-0.718,0.122-1.016,0.271c-0.23,0.108-0.366,0.203-0.65,0.433L0,31.345l0.149-0.433l0.189-0.637l0.149-0.515
			l0.19,0.013c1.151,0.081,0.718,0.013,1.476,0.04c0.677,0.014,1.422,0.014,2.167,0.014c1.178,0,2.356-0.054,3.453-0.054h0.217
			l0.203-0.013h0.203L8.18,30.247z"/>
		<path fill="#FFFFFF" d="M15.629,38.103c-0.623,0.569-1.463,1.016-2.289,1.259c-0.447,0.122-0.907,0.176-1.435,0.176
			c-0.664,0-1.273-0.108-1.747-0.298c-0.894-0.365-1.611-1.11-1.964-2.031c-0.203-0.515-0.298-1.083-0.298-1.747
			c0-1.029,0.257-2.113,0.718-2.966c0.582-1.124,1.517-2.032,2.6-2.56c0.406-0.19,0.826-0.325,1.233-0.406
			c0.352-0.081,0.772-0.122,1.138-0.122c0.718,0,1.395,0.136,1.977,0.393c0.786,0.352,1.341,0.948,1.693,1.815
			c0.23,0.569,0.339,1.192,0.339,1.855C17.593,35.205,16.834,36.992,15.629,38.103z M15.087,31.345
			c-0.176-0.379-0.447-0.664-0.772-0.826c-0.176-0.108-0.352-0.176-0.609-0.217c-0.135-0.014-0.244-0.027-0.325-0.027
			c-0.42,0-0.704,0.054-1.016,0.203c-0.488,0.217-0.867,0.542-1.219,1.07c-0.257,0.393-0.461,0.84-0.65,1.463
			c-0.176,0.569-0.298,1.165-0.366,1.815c-0.027,0.339-0.054,0.691-0.054,0.975c0,0.488,0.027,0.826,0.095,1.124
			c0.135,0.609,0.393,1.07,0.758,1.354c0.325,0.257,0.758,0.393,1.205,0.393c1.043,0,1.869-0.582,2.451-1.707
			c0.488-0.948,0.826-2.505,0.826-3.833C15.412,32.36,15.317,31.859,15.087,31.345z"/>
		<path fill="#FFFFFF" d="M26.287,39.213h-0.623l-1.205,0.041l-0.731,0.027c-0.041-0.122-0.081-0.217-0.081-0.244l-0.04-0.136
			l-0.041-0.122l-0.041-0.135l-0.447-1.341c-0.19-0.569-0.42-1.138-0.664-1.693c-0.108-0.244-0.23-0.474-0.298-0.569
			c-0.108-0.122-0.203-0.163-0.433-0.163h-0.203l0.19-0.447l0.135-0.406c0.203,0.013,0.298,0.013,0.515,0.013
			c0.433,0,0.894-0.203,1.165-0.515c0.339-0.379,0.542-0.989,0.542-1.585c0-0.88-0.447-1.314-1.382-1.314
			c-0.203,0-0.379,0.013-0.745,0.068c-0.04,0.176-0.068,0.311-0.081,0.406c-0.041,0.23-0.095,0.501-0.149,0.826l-0.772,4.727
			c-0.136,0.84-0.19,1.463-0.19,2.031c0,0.203,0.013,0.298,0.041,0.528l-0.542-0.027h-1.3l-0.528,0.027
			c0.176-0.569,0.23-0.731,0.352-1.259c0.027-0.176,0.054-0.366,0.095-0.623c0.054-0.271,0.081-0.406,0.108-0.582l0.718-4.523
			c0.041-0.284,0.081-0.555,0.108-0.826c0.013-0.149,0.027-0.312,0.027-0.406c0-0.257-0.027-0.379-0.135-0.474
			c-0.068-0.081-0.176-0.108-0.42-0.108h-0.108l0.352-0.623l0.812,0.013l2.357-0.013h0.433l0.447-0.013h0.447
			c0.461,0,0.907,0.081,1.192,0.203c0.61,0.284,0.935,0.84,0.935,1.611c0,0.691-0.257,1.368-0.718,1.842
			c-0.244,0.244-0.569,0.461-0.907,0.623c-0.136,0.068-0.244,0.108-0.488,0.176l0.081,0.176l0.081,0.176
			c0.203,0.542,0.122,0.325,0.284,0.718c0.339,0.813,0.664,1.544,1.056,2.397c0.149,0.325,0.285,0.609,0.42,0.826
			c0.095,0.176,0.203,0.312,0.42,0.555L26.287,39.213z"/>
		<path fill="#FFFFFF" d="M36.499,31.033c-0.081,0.406-0.19,0.989-0.271,1.463l-0.65,4.199c-0.041,0.217-0.095,0.487-0.136,0.826
			c-0.04,0.406-0.068,0.745-0.095,1.002c0,0.136-0.027,0.271-0.027,0.528v0.271l-0.813-0.013l-0.84,0.013
			c-0.068-0.163-0.149-0.339-0.217-0.501c-0.149-0.325-0.298-0.65-0.474-0.975l-2.506-4.524l-0.65-1.192l-0.108,0.758l-0.542,3.684
			c-0.068,0.42-0.108,0.826-0.135,1.219c-0.027,0.271-0.027,0.474-0.027,0.772c0,0.149,0.013,0.312,0.027,0.433
			c0.013,0.054,0.013,0.122,0.041,0.217l-0.542-0.027h-0.691l-0.528,0.027c0.176-0.569,0.217-0.745,0.325-1.259
			c0.041-0.19,0.095-0.393,0.136-0.637c0.054-0.284,0.081-0.447,0.108-0.637l0.704-4.429c0.095-0.555,0.135-1.016,0.135-1.287
			c0-0.217-0.04-0.366-0.135-0.461c-0.081-0.068-0.19-0.095-0.42-0.095h-0.122l0.352-0.623l0.555,0.013l1.449-0.013l0.731-0.013
			c0.081,0.23,0.149,0.406,0.203,0.528c0.163,0.406,0.325,0.758,0.488,1.056l2.045,3.846l0.542,1.043l0.149-1.043l0.366-2.6
			c0.081-0.515,0.135-0.962,0.163-1.368c0.013-0.284,0.027-0.501,0.027-0.813c0-0.163-0.013-0.312-0.027-0.433
			c-0.013-0.041-0.027-0.108-0.041-0.203l0.528,0.013h0.718l0.528-0.013C36.647,30.356,36.607,30.546,36.499,31.033z"/>
		<path fill="#FFFFFF" d="M44.597,39.186H43.31l-0.785,0.027c0.04-0.393,0.054-0.582,0.054-0.799c0-0.149,0-0.298-0.014-0.433
			c-0.013-0.095-0.027-0.23-0.068-0.501c0-0.081-0.013-0.176-0.027-0.257l-0.163-1.165l-0.853-0.027h-1.233l-0.921,0.027
			l-0.528,1.138c-0.352,0.745-0.501,1.259-0.501,1.693c0,0.068,0.014,0.19,0.027,0.325l-0.406-0.027h-1.07l-0.528,0.027
			l-0.027-0.122c0.339-0.501,0.447-0.664,0.691-1.083c0.095-0.163,0.203-0.352,0.298-0.528c0.149-0.244,0.217-0.406,0.312-0.582
			l2.885-5.485c0.149-0.284,0.325-0.609,0.447-0.867c0.122-0.257,0.189-0.42,0.352-0.84l0.501-0.027l1.097-0.122l0.569-0.095
			c0.013,0.176,0.013,0.298,0.013,0.393c0.014,0.298,0.068,0.637,0.122,1.002l0.989,5.973c0.054,0.352,0.149,0.799,0.271,1.273
			c0.068,0.284,0.149,0.542,0.203,0.745c0.04,0.095,0.068,0.19,0.135,0.366L44.597,39.186z M41.685,31.128l-1.91,3.941l0.731,0.027
			h0.921l0.772-0.027L41.685,31.128z"/>
		<path fill="#FFFFFF" d="M54.917,36.207c-0.569,1.07-1.422,1.923-2.438,2.438c-0.515,0.257-1.083,0.433-1.652,0.501
			c-0.339,0.041-0.677,0.081-1.016,0.081h-0.515l-2.194-0.04h-0.433l-0.433,0.027c0.176-0.569,0.23-0.731,0.352-1.259
			c0.027-0.176,0.054-0.352,0.095-0.609c0.054-0.271,0.081-0.42,0.108-0.582l0.718-4.537c0.081-0.501,0.135-0.989,0.135-1.259
			c0-0.217-0.04-0.352-0.135-0.447c-0.081-0.081-0.176-0.108-0.42-0.108H46.98l0.352-0.623l0.352,0.013
			c0.189,0.013,0.393,0.013,0.447,0.013h0.528c0.095,0,0.176-0.013,0.257-0.013c0.488-0.013,1.029-0.027,1.435-0.027h0.718
			c0.379,0,0.88,0.013,1.246,0.054c0.61,0.027,1.178,0.122,1.544,0.257c0.569,0.217,1.029,0.582,1.341,1.083
			c0.312,0.515,0.488,1.246,0.488,2.018C55.689,34.189,55.418,35.272,54.917,36.207z M52.777,31.345
			c-0.433-0.433-1.043-0.609-2.031-0.609c-0.19,0-0.433,0.013-0.637,0.027c-0.081,0-0.203,0.013-0.366,0.041l-0.244,1.246
			l-0.691,4.334c-0.041,0.23-0.068,0.447-0.095,0.65c-0.013,0.135-0.027,0.284-0.027,0.393c0,0.366,0.122,0.582,0.393,0.677
			c0.189,0.068,0.474,0.108,0.84,0.108c0.718,0,1.273-0.149,1.788-0.488c0.609-0.406,1.057-1.043,1.382-1.991
			c0.23-0.704,0.366-1.517,0.366-2.248C53.454,32.536,53.21,31.792,52.777,31.345z"/>
		<path fill="#FFFFFF" d="M64.207,38.103c-0.623,0.569-1.462,1.016-2.289,1.259c-0.447,0.122-0.907,0.176-1.435,0.176
			c-0.664,0-1.273-0.108-1.747-0.298c-0.894-0.365-1.612-1.11-1.964-2.031c-0.203-0.515-0.298-1.083-0.298-1.747
			c0-1.029,0.257-2.113,0.718-2.966c0.582-1.124,1.517-2.032,2.6-2.56c0.406-0.19,0.826-0.325,1.233-0.406
			c0.352-0.081,0.772-0.122,1.138-0.122c0.718,0,1.395,0.136,1.977,0.393c0.786,0.352,1.341,0.948,1.693,1.815
			c0.23,0.569,0.339,1.192,0.339,1.855C66.171,35.205,65.413,36.992,64.207,38.103z M63.665,31.345
			c-0.176-0.379-0.447-0.664-0.772-0.826c-0.176-0.108-0.352-0.176-0.609-0.217c-0.136-0.014-0.244-0.027-0.325-0.027
			c-0.42,0-0.704,0.054-1.016,0.203c-0.488,0.217-0.867,0.542-1.219,1.07c-0.257,0.393-0.461,0.84-0.65,1.463
			c-0.176,0.569-0.298,1.165-0.366,1.815c-0.027,0.339-0.054,0.691-0.054,0.975c0,0.488,0.027,0.826,0.095,1.124
			c0.135,0.609,0.393,1.07,0.758,1.354c0.325,0.257,0.758,0.393,1.205,0.393c1.043,0,1.869-0.582,2.451-1.707
			c0.488-0.948,0.826-2.505,0.826-3.833C63.99,32.36,63.896,31.859,63.665,31.345z"/>
	</g>
	<g>
		<path fill="#FFFFFF" d="M119.854,30.508l-0.271,0.637l-0.162,0.42l-0.217,0.027c-0.163-0.298-0.285-0.406-0.542-0.501
			c-0.312-0.122-0.705-0.176-1.206-0.176c-0.176,0-0.542,0.013-0.867,0.041l-0.271,1.395l-0.284,1.693h0.84
			c0.474,0,0.881-0.013,1.206-0.027c0.23,0,0.433-0.013,0.826-0.041l-0.081,0.325l-0.095,0.542l-0.027,0.325
			c-0.515-0.04-0.731-0.054-1.083-0.068c-0.23-0.013-0.474-0.013-0.65-0.013c-0.189,0-0.365,0-0.596,0.013
			c-0.108,0-0.284,0-0.501,0.014l-0.298,1.801c-0.135,0.853-0.189,1.476-0.189,2.031c0,0.203,0.013,0.298,0.041,0.528l-0.542-0.027
			h-1.3l-0.528,0.027c0.176-0.569,0.23-0.745,0.339-1.259c0.068-0.339,0.163-0.867,0.217-1.206l0.731-4.523
			c0.054-0.312,0.081-0.582,0.108-0.826c0.013-0.149,0.027-0.312,0.027-0.406c0-0.257-0.04-0.379-0.135-0.474
			c-0.081-0.081-0.19-0.108-0.42-0.108H113.8l0.352-0.623l1.422,0.013h1.815c0.46,0,0.921-0.013,1.382-0.013
			c0.528,0,0.677-0.013,1.314-0.027L119.854,30.508z"/>
		<path fill="#FFFFFF" d="M127.289,39.447h-1.287l-0.785,0.027c0.04-0.393,0.054-0.582,0.054-0.799c0-0.149,0-0.298-0.014-0.433
			c-0.013-0.095-0.027-0.23-0.068-0.501c0-0.081-0.013-0.176-0.027-0.257L125,36.318l-0.853-0.027h-1.233l-0.921,0.027l-0.528,1.138
			c-0.352,0.745-0.501,1.259-0.501,1.693c0,0.068,0.014,0.19,0.027,0.325l-0.406-0.027h-1.07l-0.528,0.027l-0.027-0.122
			c0.339-0.501,0.447-0.664,0.691-1.083c0.095-0.163,0.203-0.352,0.298-0.528c0.149-0.244,0.217-0.406,0.312-0.582l2.885-5.485
			c0.149-0.284,0.325-0.609,0.447-0.867c0.122-0.257,0.189-0.42,0.352-0.84l0.501-0.027l1.097-0.122l0.569-0.095
			c0.013,0.176,0.013,0.298,0.013,0.393c0.014,0.298,0.068,0.637,0.122,1.002l0.989,5.973c0.054,0.352,0.149,0.799,0.271,1.273
			c0.068,0.284,0.149,0.542,0.203,0.745c0.04,0.095,0.068,0.19,0.135,0.366L127.289,39.447z M124.377,31.388l-1.91,3.941
			l0.731,0.027h0.921l0.772-0.027L124.377,31.388z"/>
		<path fill="#FFFFFF" d="M137.311,30.806l-0.284,0.785l-0.176,0.474l-0.23,0.054c-0.135-0.284-0.244-0.46-0.352-0.596
			c-0.406-0.501-1.029-0.772-1.734-0.772c-1.097,0-1.991,0.637-2.6,1.842c-0.447,0.88-0.704,1.977-0.704,3.02
			c0,0.921,0.203,1.652,0.609,2.14c0.42,0.528,1.07,0.813,1.801,0.813c0.406,0,0.799-0.081,1.246-0.257
			c0.244-0.095,0.461-0.203,0.664-0.325c0.068-0.054,0.176-0.122,0.311-0.23l0.217,0.149l-0.189,0.406l-0.203,0.515l-0.149,0.447
			c-0.352,0.122-0.528,0.163-0.745,0.217c-0.582,0.122-1.219,0.217-1.774,0.217c-0.948,0-1.734-0.189-2.329-0.555
			c-0.515-0.312-0.975-0.813-1.26-1.409c-0.284-0.582-0.433-1.341-0.433-2.086c0-0.881,0.203-1.842,0.555-2.628
			c0.555-1.205,1.517-2.18,2.681-2.709c0.758-0.352,1.734-0.542,2.722-0.542c0.406,0,0.84,0.027,1.206,0.108
			c0.271,0.041,0.528,0.095,0.772,0.176c0.136,0.054,0.352,0.122,0.623,0.23L137.311,30.806z"/>
		<path fill="#FFFFFF" d="M144.38,30.508l-0.271,0.65l-0.149,0.406l-0.217,0.027c-0.163-0.298-0.271-0.406-0.528-0.501
			c-0.325-0.122-0.718-0.176-1.232-0.176c-0.149,0-0.501,0.013-0.813,0.041c-0.054,0.217-0.095,0.393-0.108,0.501
			c-0.054,0.271-0.108,0.569-0.162,0.894l-0.257,1.503c0.244,0.013,0.433,0.013,0.542,0.013h0.284c0.447,0,0.853-0.013,1.178-0.027
			c0.23,0,0.433-0.027,0.826-0.054l-0.081,0.352l-0.081,0.474l-0.027,0.312c-0.244-0.013-0.433-0.027-0.555-0.027
			c-0.406-0.027-0.84-0.041-1.219-0.041c-0.312,0-0.528,0-1.029,0.013l-0.285,1.788c-0.054,0.312-0.081,0.542-0.095,0.718
			c-0.014,0.136-0.027,0.271-0.027,0.366c0,0.176,0.013,0.271,0.054,0.379c0.136,0.312,0.447,0.406,1.287,0.406
			c0.555,0,1.043-0.068,1.395-0.203c0.203-0.081,0.393-0.176,0.555-0.298c0.068-0.054,0.163-0.135,0.284-0.244l0.23,0.081
			l-0.217,0.501l-0.23,0.664l-0.149,0.501c-0.244-0.013-0.42-0.027-0.474-0.041c-0.054,0-0.433-0.013-1.192-0.013h-0.596
			l-0.691-0.013h-0.691l-0.691-0.027c-0.217,0-0.379,0.014-0.881,0.027c-0.135,0-0.284,0.013-0.433,0.013
			c0.176-0.569,0.23-0.731,0.352-1.259c0.027-0.176,0.054-0.352,0.095-0.609c0.054-0.271,0.081-0.42,0.108-0.582l0.718-4.537
			c0.081-0.515,0.135-0.989,0.135-1.259c0-0.217-0.041-0.352-0.135-0.447c-0.081-0.081-0.176-0.108-0.42-0.108h-0.108l0.352-0.623
			c0.311,0,0.636,0.013,0.934,0.013h0.474h1.192l0.582-0.013h1.382c0.501,0,0.691-0.013,1.314-0.027L144.38,30.508z"/>
		<path fill="#FFFFFF" d="M151.084,30.698l-0.271,0.609l-0.176,0.42l-0.23,0.027c-0.19-0.379-0.312-0.528-0.515-0.705
			c-0.271-0.217-0.609-0.325-0.989-0.325c-0.826,0-1.449,0.596-1.449,1.382c0,0.325,0.122,0.623,0.352,0.867
			c0.135,0.149,0.298,0.298,0.488,0.447c0.081,0.054,0.257,0.176,0.569,0.42l0.285,0.217c0.257,0.203,0.501,0.379,0.704,0.569
			c0.501,0.461,0.799,1.124,0.799,1.801c0,0.921-0.488,1.882-1.273,2.479c-0.42,0.325-0.907,0.555-1.476,0.704
			c-0.379,0.095-0.799,0.149-1.151,0.149c-0.311,0-0.582-0.013-0.948-0.068c-0.312-0.041-0.582-0.108-0.813-0.176
			c-0.122-0.041-0.325-0.108-0.582-0.217l0.244-0.555l0.257-0.636l0.176-0.542l0.244-0.027c0.136,0.325,0.217,0.461,0.366,0.637
			c0.339,0.366,0.799,0.569,1.314,0.569c0.962,0,1.707-0.664,1.707-1.53c0-0.257-0.081-0.528-0.23-0.758
			c-0.122-0.176-0.257-0.339-0.42-0.474c-0.163-0.136-0.379-0.298-0.637-0.488c-0.285-0.203-0.555-0.406-0.786-0.596
			c-0.745-0.582-1.056-1.178-1.056-1.991c0-0.84,0.393-1.693,1.056-2.289c0.65-0.569,1.544-0.88,2.573-0.88
			c0.433,0,0.88,0.054,1.314,0.163c0.23,0.068,0.42,0.136,0.813,0.284L151.084,30.698z"/>
	</g>
	<path fill="#FFFFFF" d="M108.035,20.176c-2.936,3.915-7.385,6.633-12.482,7.295c0.09,0.563,0.185,1.128,0.282,1.695
		C101.133,28.317,105.609,24.897,108.035,20.176z"/>
	<path fill="#FFFFFF" d="M70.432,20.135c2.666,4.445,7.223,7.548,12.507,8.106c-0.174-0.589-0.345-1.179-0.51-1.771
		C77.648,25.933,73.414,23.587,70.432,20.135z"/>
</g>
</svg>
