<?xml version="1.0" encoding="utf-8"?>
<!-- Generator: Adobe Illustrator 17.1.0, SVG Export Plug-In . SVG Version: 6.00 Build 0)  -->
<svg version="1.2" baseProfile="tiny" id="Layer_1" xmlns="http://www.w3.org/2000/svg" xmlns:xlink="http://www.w3.org/1999/xlink"
	 x="0px" y="0px" viewBox="0 0 42.505 55.34" overflow="scroll" xml:space="preserve">
<g>
	<g>
		<path fill="#FFFFFF" d="M26.988,53.286c-1.656,0.51-3.385,0.772-5.105,0.943c-0.071,0.007-0.143,0.014-0.214,0.021
			c-0.119,0.011-0.238,0.015-0.357,0.02c0.616-0.986,1.431-1.943,2.225-2.845c-0.826,0.508-1.7,1.004-2.528,1.603
			c1.179-2.438,2.126-5.074,2.272-7.9c0.488-6.685-1.307-12.989-2.091-19.102c-1.275-7.965-0.371-15.856,3.006-22.218
			c0.198,0.031,0.396,0.061,0.601,0.093c0.839,0.13,1.67,0.31,2.49,0.532c3.406,0.995,6.521,2.635,9.193,4.774
			c0.404,0.332,0.799,0.674,1.18,1.03c1.926,1.798,3.566,3.909,4.844,6.218C38.837,6.997,30.577,0.292,20.79,0.009
			C12.264-0.237,4.612,4.45,0,11.765c4.104-4.387,9.761-7.394,16.138-8.204c-1.416,4.818-1.674,9.929-1.123,14.908
			c0.286,2.587,0.78,5.148,1.402,7.675c0.635,2.577,1.438,5.108,2.202,7.649c1.103,3.669,2.153,7.411,2.335,11.259
			c0.215,2.786-0.506,5.605-1.496,8.317c-0.984-1.985-2.51-3.669-4.522-4.326c1.842,1.221,2.717,3.241,3.026,5.224
			c-0.178-0.009-0.357-0.018-0.539-0.035c-1.46-0.153-2.909-0.363-4.33-0.737c-2.075-0.545-4.078-1.306-5.967-2.327
			c-0.378-0.204-0.749-0.421-1.115-0.643c3.753,2.906,8.274,4.662,13.179,4.804c6.199,0.179,11.936-2.25,16.379-6.401
			c-0.76,0.586-1.552,1.132-2.373,1.631C31.247,51.744,29.162,52.616,26.988,53.286z"/>
	</g>
	<path fill="#FFFFFF" d="M37.902,20.176c-2.936,3.915-7.385,6.633-12.482,7.295c0.09,0.563,0.185,1.128,0.282,1.695
		C30.999,28.317,35.475,24.897,37.902,20.176z"/>
	<path fill="#FFFFFF" d="M0.299,20.135c2.666,4.445,7.223,7.548,12.507,8.106c-0.174-0.589-0.345-1.179-0.51-1.771
		C7.514,25.933,3.281,23.587,0.299,20.135z"/>
</g>
</svg>
